<svg id="svg" xmlns="http://www.w3.org/2000/svg" xmlns:xlink="http://www.w3.org/1999/xlink" width="400" height="93.4657270980141" viewBox="0, 0, 400,93.4657270980141"><g id="svgg"><path id="path0" d="M49.500 9.930 C 44.846 10.182,36.125 11.475,35.610 11.990 C 35.527 12.073,35.369 12.106,35.258 12.064 C 35.148 12.021,34.838 12.075,34.570 12.183 C 34.303 12.292,33.933 12.407,33.750 12.440 C 33.567 12.473,33.304 12.521,33.167 12.547 C 32.389 12.694,29.833 13.583,29.833 13.707 C 29.833 13.787,29.766 13.811,29.683 13.760 C 29.489 13.640,25.801 15.119,25.632 15.383 C 25.562 15.493,25.504 15.524,25.503 15.451 C 25.495 15.055,19.167 18.773,19.167 19.173 C 19.167 19.272,19.102 19.313,19.023 19.264 C 18.712 19.072,14.685 23.037,14.676 23.545 C 14.675 23.615,14.526 23.831,14.346 24.024 C 14.051 24.342,12.734 26.693,12.798 26.790 C 12.825 26.831,12.739 27.124,12.489 27.833 C 10.627 33.115,14.175 39.837,21.083 44.116 C 22.820 45.192,24.621 46.156,24.717 46.061 C 24.758 46.020,24.835 46.097,24.887 46.233 C 24.955 46.411,24.679 46.629,23.908 47.004 C 23.317 47.292,22.833 47.601,22.833 47.690 C 22.833 47.780,22.769 47.813,22.691 47.765 C 22.434 47.606,19.097 49.810,17.750 51.028 C 17.475 51.277,16.931 51.756,16.542 52.093 C 16.152 52.430,15.833 52.791,15.833 52.896 C 15.833 53.001,15.689 53.176,15.513 53.286 C 15.155 53.510,13.722 55.455,13.638 55.833 C 13.608 55.966,13.495 56.171,13.387 56.288 C 13.279 56.404,13.027 56.931,12.826 57.458 C 10.126 64.558,13.880 71.338,23.359 76.479 C 24.050 76.855,24.654 77.123,24.701 77.077 C 24.748 77.030,24.881 77.106,24.997 77.246 C 25.113 77.386,25.271 77.500,25.349 77.500 C 25.427 77.500,25.887 77.685,26.370 77.910 C 27.381 78.382,30.460 79.526,30.836 79.570 C 30.975 79.586,31.163 79.644,31.253 79.700 C 31.571 79.895,35.048 80.855,35.562 80.890 C 35.849 80.909,36.165 80.976,36.264 81.039 C 36.581 81.238,38.951 81.675,43.250 82.326 C 49.239 83.234,64.950 82.946,66.695 81.897 C 66.757 81.860,67.170 81.792,67.612 81.746 C 68.418 81.663,69.336 81.473,70.583 81.131 C 70.950 81.031,71.451 80.924,71.697 80.894 C 72.277 80.822,75.615 79.885,75.880 79.719 C 75.992 79.649,76.158 79.587,76.250 79.582 C 76.909 79.540,81.109 77.918,81.542 77.538 C 81.702 77.397,81.833 77.333,81.833 77.395 C 81.833 77.548,82.885 77.002,83.039 76.768 C 83.106 76.667,83.163 76.644,83.164 76.718 C 83.166 76.837,84.121 76.385,84.333 76.163 C 84.379 76.116,84.642 75.977,84.917 75.856 C 85.712 75.506,88.662 73.480,88.926 73.102 C 89.058 72.914,89.167 72.826,89.167 72.908 C 89.167 72.989,89.837 72.389,90.657 71.574 C 91.477 70.759,92.125 70.069,92.097 70.042 C 92.069 70.014,92.305 69.712,92.620 69.371 C 95.012 66.782,95.925 61.108,94.491 57.750 C 94.374 57.475,94.265 57.212,94.250 57.167 C 93.991 56.394,93.072 54.841,92.311 53.889 C 91.680 53.099,88.792 50.319,88.700 50.411 C 88.652 50.459,88.508 50.347,88.379 50.163 C 88.249 49.979,88.074 49.871,87.989 49.924 C 87.903 49.976,87.833 49.953,87.833 49.871 C 87.833 49.678,85.693 48.237,85.488 48.292 C 85.403 48.315,85.333 48.246,85.333 48.139 C 85.333 48.032,85.289 47.988,85.236 48.042 C 85.182 48.095,84.992 48.014,84.814 47.861 C 84.635 47.708,84.451 47.605,84.405 47.631 C 84.359 47.657,84.206 47.563,84.064 47.421 C 83.922 47.279,83.738 47.206,83.653 47.258 C 83.569 47.310,83.500 47.282,83.500 47.195 C 83.500 47.108,83.197 46.894,82.827 46.720 L 82.154 46.404 83.327 45.836 C 83.972 45.524,84.500 45.221,84.500 45.162 C 84.500 45.104,84.594 45.055,84.708 45.054 C 85.012 45.052,86.667 44.000,86.667 43.809 C 86.667 43.720,86.733 43.688,86.813 43.737 C 87.164 43.954,91.344 40.268,92.590 38.643 C 96.073 34.101,96.277 28.580,93.134 23.953 C 92.478 22.986,92.249 22.716,90.868 21.271 C 90.019 20.384,88.718 19.285,88.602 19.357 C 88.549 19.390,88.387 19.247,88.242 19.039 C 88.096 18.831,87.907 18.704,87.822 18.757 C 87.737 18.810,87.667 18.784,87.667 18.700 C 87.667 18.356,83.162 15.727,82.945 15.944 C 82.883 16.006,82.833 15.976,82.833 15.879 C 82.833 15.731,80.031 14.389,79.441 14.255 C 79.336 14.232,78.987 14.111,78.667 13.986 C 78.346 13.862,78.015 13.781,77.932 13.806 C 77.849 13.831,77.736 13.782,77.682 13.697 C 77.628 13.612,76.908 13.329,76.083 13.067 C 74.609 12.600,74.420 12.550,73.747 12.450 C 73.562 12.423,73.336 12.354,73.244 12.298 C 73.093 12.205,71.953 11.920,69.366 11.331 C 68.880 11.220,68.437 11.174,68.381 11.230 C 68.326 11.285,68.198 11.261,68.096 11.177 C 67.894 11.009,65.293 10.616,61.917 10.243 C 59.834 10.013,51.744 9.809,49.500 9.930 M61.500 16.060 C 62.554 16.207,63.867 16.407,64.417 16.506 C 64.967 16.604,65.604 16.708,65.833 16.737 C 66.063 16.766,66.362 16.830,66.500 16.881 C 66.637 16.931,67.500 17.140,68.417 17.344 C 73.981 18.588,80.838 21.836,83.708 24.588 C 84.052 24.918,84.333 25.139,84.333 25.079 C 84.333 25.019,84.630 25.345,84.992 25.803 C 85.354 26.262,85.823 26.757,86.034 26.905 C 86.244 27.052,86.409 27.228,86.399 27.295 C 86.390 27.362,86.571 27.717,86.803 28.083 C 90.408 33.789,89.057 38.937,82.833 43.207 C 82.146 43.678,81.528 44.144,81.461 44.240 C 81.385 44.350,81.335 44.353,81.331 44.250 C 81.326 44.158,81.219 44.220,81.093 44.386 C 80.967 44.553,80.801 44.693,80.724 44.697 C 80.443 44.714,77.413 46.216,77.294 46.397 C 77.227 46.500,77.171 46.531,77.169 46.467 C 77.168 46.403,76.885 46.468,76.542 46.612 C 75.775 46.932,75.097 47.192,75.044 47.185 C 75.022 47.182,74.685 47.296,74.294 47.437 C 73.598 47.689,73.203 47.806,70.667 48.508 C 69.237 48.904,69.109 48.933,67.750 49.181 C 67.200 49.281,66.660 49.437,66.549 49.529 C 66.438 49.620,66.277 49.652,66.191 49.598 C 66.105 49.545,65.408 49.607,64.642 49.736 C 61.140 50.324,59.687 50.417,54.000 50.412 C 48.606 50.408,45.778 50.225,43.583 49.739 C 43.400 49.698,42.913 49.628,42.500 49.583 C 41.448 49.468,38.455 48.758,36.033 48.050 C 33.459 47.296,33.499 47.268,33.890 49.533 C 34.474 52.918,36.824 58.187,37.941 58.616 C 38.065 58.663,38.167 58.790,38.167 58.897 C 38.167 59.004,38.729 59.650,39.417 60.333 C 40.104 61.016,40.667 61.521,40.667 61.456 C 40.667 61.390,40.880 61.560,41.141 61.833 C 41.402 62.106,41.664 62.280,41.724 62.220 C 41.784 62.160,41.833 62.193,41.833 62.293 C 41.833 62.477,43.756 63.701,44.834 64.204 C 46.197 64.840,47.053 65.169,47.133 65.089 C 47.181 65.042,47.301 65.069,47.401 65.149 C 48.496 66.026,56.487 66.479,57.694 65.733 C 57.798 65.669,58.116 65.595,58.400 65.570 C 58.684 65.544,59.142 65.431,59.417 65.318 C 59.692 65.205,59.969 65.124,60.033 65.137 C 60.255 65.183,62.901 63.983,63.907 63.380 C 65.399 62.486,68.443 60.054,68.277 59.888 C 68.242 59.853,68.577 59.443,69.022 58.977 C 69.466 58.511,69.789 58.063,69.739 57.981 C 69.688 57.900,69.720 57.833,69.810 57.833 C 69.996 57.833,70.769 56.648,70.707 56.458 C 70.685 56.390,70.728 56.333,70.803 56.333 C 70.981 56.333,71.729 55.001,71.552 54.997 C 71.478 54.996,71.501 54.940,71.604 54.872 C 71.863 54.703,72.909 51.807,73.164 50.553 L 73.374 49.524 74.229 49.322 C 74.699 49.212,75.946 48.828,77.000 48.469 C 78.975 47.797,79.833 47.599,79.833 47.815 C 79.833 47.967,81.202 48.758,81.375 48.705 C 81.444 48.684,81.500 48.732,81.500 48.811 C 81.500 48.945,82.598 49.747,82.871 49.812 C 82.938 49.828,83.171 50.008,83.388 50.212 C 85.315 52.019,86.147 52.882,86.722 53.667 C 87.091 54.171,87.436 54.621,87.488 54.667 C 87.541 54.712,87.600 54.825,87.621 54.917 C 87.641 55.008,87.856 55.608,88.098 56.250 C 89.127 58.979,88.289 63.015,86.098 65.886 C 85.770 66.316,85.534 66.667,85.574 66.667 C 85.613 66.667,85.055 67.229,84.333 67.917 C 83.612 68.604,83.073 69.168,83.136 69.169 C 83.198 69.170,83.088 69.264,82.890 69.377 C 82.015 69.877,80.833 70.736,80.833 70.871 C 80.833 70.953,80.763 70.976,80.677 70.923 C 80.591 70.870,80.443 70.959,80.349 71.121 C 80.254 71.284,80.175 71.366,80.172 71.303 C 80.167 71.188,76.758 72.896,76.375 73.206 C 76.260 73.298,76.167 73.329,76.167 73.273 C 76.167 73.217,75.773 73.330,75.292 73.525 C 74.314 73.919,71.044 75.000,70.828 75.000 C 70.751 75.000,70.477 75.085,70.219 75.189 C 69.961 75.292,69.600 75.396,69.417 75.419 C 69.233 75.442,68.483 75.586,67.750 75.738 C 62.182 76.895,52.824 77.432,48.250 76.857 C 47.425 76.754,46.375 76.630,45.917 76.582 C 44.761 76.463,42.491 76.079,41.000 75.752 C 40.313 75.601,39.597 75.459,39.410 75.437 C 39.222 75.414,38.997 75.353,38.910 75.300 C 38.822 75.248,38.160 75.044,37.439 74.848 C 34.778 74.122,31.119 72.618,28.708 71.258 C 28.135 70.934,27.667 70.707,27.667 70.752 C 27.667 70.797,27.525 70.702,27.352 70.542 C 27.178 70.381,26.421 69.800,25.669 69.250 C 24.212 68.184,22.030 66.010,21.318 64.914 C 20.621 63.841,20.260 63.256,20.240 63.167 C 20.230 63.121,20.133 62.858,20.023 62.583 C 19.643 61.628,19.515 61.246,19.333 60.535 C 19.109 59.658,19.092 57.199,19.307 56.651 C 19.892 55.153,20.121 54.669,20.542 54.042 C 20.803 53.652,20.958 53.333,20.888 53.333 C 20.817 53.333,20.927 53.216,21.132 53.072 C 21.338 52.928,21.455 52.729,21.394 52.630 C 21.329 52.525,21.359 52.496,21.463 52.561 C 21.564 52.623,21.771 52.458,21.928 52.192 C 22.084 51.928,22.408 51.593,22.648 51.447 C 22.887 51.302,23.316 50.960,23.601 50.688 C 24.306 50.016,26.366 48.647,27.946 47.802 C 28.663 47.418,29.296 47.037,29.352 46.954 C 29.408 46.872,29.483 46.826,29.519 46.853 C 29.635 46.939,31.165 46.254,31.166 46.115 C 31.166 46.041,31.230 46.020,31.308 46.068 C 31.386 46.116,32.117 45.892,32.933 45.572 C 33.749 45.251,35.204 44.757,36.167 44.473 C 37.129 44.189,37.999 43.892,38.099 43.813 C 38.199 43.734,38.323 43.712,38.374 43.763 C 38.453 43.842,39.471 43.642,41.083 43.233 C 42.093 42.976,46.020 42.466,47.750 42.367 C 51.243 42.166,59.517 42.287,59.939 42.545 C 60.019 42.593,60.946 42.722,62.000 42.832 C 63.054 42.942,64.843 43.213,65.974 43.433 C 67.106 43.653,68.094 43.795,68.171 43.747 C 68.248 43.700,68.352 43.729,68.403 43.812 C 68.454 43.894,68.778 44.014,69.123 44.077 C 69.468 44.141,70.537 44.411,71.500 44.678 C 72.462 44.946,73.313 45.165,73.390 45.166 C 73.467 45.166,73.489 44.698,73.440 44.125 C 73.391 43.552,73.342 42.971,73.331 42.833 C 73.191 41.077,71.302 36.000,70.788 36.000 C 70.691 36.000,70.659 35.952,70.717 35.894 C 70.903 35.708,69.465 33.811,67.941 32.233 C 66.500 30.739,64.147 28.908,63.938 29.117 C 63.881 29.175,63.833 29.143,63.833 29.045 C 63.833 28.862,62.366 28.104,60.863 27.512 C 60.388 27.325,60.000 27.217,60.000 27.273 C 60.000 27.329,59.906 27.298,59.792 27.205 C 58.459 26.123,51.745 25.962,48.192 26.927 C 46.515 27.382,43.667 28.603,43.667 28.867 C 43.667 28.951,43.592 28.973,43.500 28.917 C 43.408 28.860,43.333 28.893,43.333 28.990 C 43.333 29.087,43.229 29.167,43.102 29.167 C 42.398 29.167,37.943 33.229,37.333 34.426 C 37.196 34.696,36.998 34.992,36.893 35.083 C 36.609 35.333,35.636 37.166,35.787 37.169 C 35.858 37.171,35.827 37.229,35.717 37.299 C 35.397 37.502,34.356 40.408,34.056 41.934 C 33.898 42.741,33.698 43.333,33.585 43.333 C 33.402 43.333,31.564 43.890,31.000 44.116 C 30.863 44.172,30.600 44.245,30.417 44.280 C 30.233 44.315,30.058 44.416,30.027 44.506 C 29.997 44.595,29.911 44.631,29.837 44.585 C 29.763 44.540,29.427 44.617,29.090 44.758 C 28.514 44.998,28.444 44.993,27.906 44.660 C 27.591 44.465,27.333 44.346,27.333 44.395 C 27.333 44.444,27.133 44.298,26.888 44.071 C 26.643 43.844,26.268 43.615,26.055 43.561 C 25.841 43.508,25.667 43.384,25.667 43.287 C 25.667 43.190,25.620 43.158,25.563 43.215 C 25.505 43.272,25.320 43.154,25.152 42.951 C 24.983 42.749,24.842 42.636,24.839 42.701 C 24.814 43.229,20.756 38.721,20.346 37.708 C 20.225 37.410,20.048 37.167,19.952 37.167 C 19.856 37.167,19.822 37.122,19.876 37.068 C 19.930 37.014,19.856 36.658,19.711 36.277 C 19.327 35.268,19.346 32.385,19.745 31.083 C 19.914 30.533,20.053 29.990,20.054 29.875 C 20.055 29.760,20.104 29.667,20.163 29.667 C 20.286 29.667,20.752 28.549,20.663 28.469 C 20.631 28.440,20.805 28.201,21.050 27.937 C 21.294 27.674,21.457 27.399,21.413 27.327 C 21.368 27.254,21.388 27.170,21.457 27.139 C 21.711 27.027,23.333 25.020,23.333 24.819 C 23.333 24.705,23.383 24.660,23.443 24.721 C 23.503 24.781,23.897 24.509,24.318 24.117 C 24.739 23.725,25.608 23.035,26.250 22.583 C 26.892 22.131,27.472 21.684,27.539 21.589 C 27.606 21.494,27.663 21.482,27.664 21.562 C 27.666 21.642,27.761 21.630,27.875 21.534 C 28.596 20.936,33.084 18.939,35.083 18.327 C 35.450 18.215,35.824 18.080,35.914 18.028 C 36.004 17.975,36.191 17.922,36.330 17.909 C 36.470 17.897,37.183 17.717,37.917 17.510 C 38.650 17.304,39.475 17.102,39.750 17.062 C 40.025 17.023,40.438 16.949,40.667 16.897 C 45.717 15.767,56.333 15.341,61.500 16.060 M249.333 22.547 C 249.287 22.594,248.796 22.678,248.242 22.733 C 243.837 23.168,239.875 25.661,238.086 29.122 C 236.209 32.751,236.840 39.496,239.285 41.941 C 239.587 42.242,239.833 42.554,239.833 42.634 C 239.833 43.054,243.709 46.000,244.262 46.000 C 244.377 46.000,244.497 46.061,244.528 46.136 C 244.646 46.425,250.098 48.822,250.315 48.681 C 250.350 48.657,250.425 48.703,250.481 48.783 C 250.593 48.941,252.606 49.943,252.986 50.030 C 253.116 50.059,253.351 50.196,253.509 50.333 C 253.666 50.471,254.107 50.770,254.489 50.997 C 255.129 51.378,256.688 52.760,256.797 53.042 C 256.822 53.108,257.000 53.520,257.192 53.956 C 258.202 56.257,257.195 59.351,255.000 60.692 C 254.452 61.026,252.956 61.593,252.774 61.534 C 252.696 61.509,252.546 61.557,252.441 61.640 C 251.278 62.566,243.143 61.434,238.833 59.747 C 237.963 59.406,237.156 59.124,237.042 59.119 C 236.927 59.115,236.833 59.049,236.833 58.972 C 236.833 58.896,236.758 58.833,236.667 58.833 C 236.561 58.833,236.500 60.138,236.500 62.413 L 236.500 65.992 237.208 66.308 C 238.587 66.922,241.233 67.639,242.583 67.763 C 242.858 67.788,243.458 67.897,243.917 68.005 C 245.067 68.276,252.008 68.283,253.000 68.015 C 253.412 67.903,253.938 67.788,254.167 67.759 C 255.446 67.598,257.850 66.792,258.833 66.195 C 263.239 63.520,265.008 60.453,264.994 55.515 C 264.986 52.776,264.567 51.047,263.477 49.265 C 262.900 48.321,260.997 46.316,260.796 46.440 C 260.725 46.484,260.667 46.439,260.667 46.341 C 260.667 45.960,255.467 43.065,255.142 43.265 C 255.064 43.313,255.000 43.287,255.000 43.207 C 255.000 43.126,254.381 42.809,253.625 42.500 C 252.869 42.192,251.734 41.692,251.104 41.390 C 250.474 41.087,249.892 40.880,249.812 40.930 C 249.732 40.979,249.667 40.958,249.667 40.883 C 249.667 40.808,249.160 40.485,248.542 40.165 C 247.923 39.845,247.229 39.414,247.000 39.206 C 246.771 38.999,246.471 38.793,246.333 38.749 C 246.196 38.705,245.842 38.312,245.548 37.876 C 243.886 35.416,244.010 32.653,245.862 30.866 C 246.716 30.041,247.167 29.652,247.167 29.737 C 247.167 29.776,247.598 29.650,248.125 29.456 C 249.603 28.914,252.574 28.859,254.932 29.331 C 255.932 29.531,256.900 29.715,257.083 29.741 C 257.267 29.767,257.633 29.876,257.898 29.982 C 258.162 30.089,258.500 30.200,258.648 30.229 C 258.796 30.259,259.067 30.344,259.250 30.418 C 259.433 30.492,259.958 30.693,260.417 30.864 C 260.875 31.036,261.419 31.261,261.625 31.366 C 262.095 31.604,261.931 31.897,263.224 28.523 C 264.535 25.104,264.540 25.072,263.727 25.181 C 263.668 25.189,263.569 25.112,263.506 25.010 C 263.262 24.614,259.010 23.334,256.250 22.826 C 255.191 22.631,249.475 22.400,249.333 22.547 M113.167 45.417 L 113.167 67.667 126.333 67.667 L 139.500 67.667 139.500 64.417 L 139.500 61.167 130.083 61.167 L 120.667 61.167 120.667 42.167 L 120.667 23.167 116.917 23.167 L 113.167 23.167 113.167 45.417 M147.000 45.417 L 147.000 67.667 150.750 67.667 L 154.500 67.667 154.500 45.417 L 154.500 23.167 150.750 23.167 L 147.000 23.167 147.000 45.417 M160.000 23.245 C 160.000 23.288,160.450 24.597,161.000 26.153 C 161.550 27.710,162.000 29.027,162.000 29.080 C 162.000 29.134,162.124 29.456,162.277 29.797 C 162.429 30.138,162.565 30.454,162.580 30.500 C 162.595 30.546,162.703 30.921,162.820 31.333 C 162.938 31.746,163.116 32.233,163.215 32.417 C 163.315 32.600,163.412 32.862,163.431 33.000 C 163.495 33.466,164.845 37.230,165.027 37.449 C 165.126 37.569,165.165 37.667,165.113 37.667 C 165.061 37.667,165.248 38.323,165.529 39.125 C 165.810 39.927,166.527 41.971,167.122 43.667 C 167.717 45.362,168.242 46.919,168.288 47.125 C 168.334 47.331,168.451 47.500,168.547 47.500 C 168.643 47.500,168.680 47.542,168.629 47.594 C 168.543 47.679,169.519 50.721,170.015 51.917 C 170.260 52.508,170.241 52.453,170.416 53.083 C 170.492 53.358,170.668 53.846,170.807 54.167 C 170.945 54.487,171.075 54.833,171.094 54.934 C 171.139 55.165,172.061 57.861,173.168 61.000 C 173.637 62.329,174.308 64.242,174.659 65.250 C 175.010 66.258,175.350 67.215,175.416 67.375 C 175.525 67.641,175.880 67.667,179.476 67.667 L 183.417 67.667 184.000 65.967 C 184.321 65.033,184.561 64.196,184.533 64.108 C 184.505 64.019,184.549 63.903,184.631 63.849 C 184.713 63.794,184.897 63.413,185.041 63.000 C 185.184 62.587,185.803 60.825,186.415 59.083 C 187.028 57.342,187.592 55.729,187.668 55.500 C 187.745 55.271,188.195 53.996,188.668 52.667 C 189.141 51.337,189.541 50.137,189.556 50.000 C 189.571 49.862,189.621 49.712,189.668 49.667 C 189.758 49.578,190.330 48.000,190.404 47.634 C 190.429 47.515,190.542 47.192,190.655 46.917 C 190.768 46.642,191.346 45.029,191.938 43.333 C 193.738 38.181,194.341 36.465,194.748 35.333 C 195.289 33.830,195.577 32.946,195.589 32.750 C 195.594 32.658,195.679 32.433,195.777 32.250 C 195.985 31.864,196.407 30.661,196.422 30.417 C 196.428 30.325,196.526 30.080,196.640 29.872 C 196.755 29.663,196.803 29.420,196.748 29.330 C 196.692 29.240,196.717 29.167,196.803 29.167 C 196.931 29.167,197.076 28.731,197.177 28.041 C 197.187 27.973,197.261 27.837,197.341 27.741 C 197.421 27.644,197.782 26.706,198.142 25.657 C 198.502 24.608,198.851 23.617,198.917 23.455 C 199.031 23.178,198.809 23.163,195.076 23.205 L 191.114 23.250 190.543 24.917 C 190.230 25.833,189.952 26.696,189.926 26.833 C 189.901 26.971,189.833 27.196,189.776 27.333 C 189.441 28.140,189.205 28.983,189.290 29.068 C 189.345 29.122,189.298 29.167,189.187 29.167 C 189.076 29.167,189.001 29.260,189.019 29.375 C 189.038 29.490,188.960 29.808,188.847 30.083 C 188.434 31.081,188.186 31.897,188.260 32.016 C 188.301 32.083,188.267 32.163,188.184 32.194 C 188.100 32.225,188.006 32.438,187.974 32.667 C 187.943 32.896,187.869 33.121,187.810 33.167 C 187.752 33.212,187.550 33.737,187.363 34.333 C 187.175 34.929,186.333 37.442,185.492 39.917 C 184.650 42.392,183.948 44.530,183.931 44.670 C 183.915 44.809,183.844 45.014,183.776 45.125 C 183.655 45.320,183.126 46.907,183.067 47.250 C 183.051 47.342,183.021 47.492,182.999 47.583 C 182.978 47.675,182.969 47.806,182.980 47.875 C 182.991 47.944,182.934 48.000,182.853 48.000 C 182.703 48.000,182.250 49.460,182.315 49.735 C 182.335 49.818,182.282 49.930,182.197 49.985 C 182.060 50.072,181.278 52.382,181.092 53.250 C 181.052 53.433,180.828 54.233,180.594 55.027 C 180.359 55.821,180.143 56.687,180.114 56.951 C 180.086 57.216,180.017 57.504,179.963 57.592 C 179.908 57.680,179.810 58.052,179.744 58.418 C 179.593 59.253,179.346 59.750,179.338 59.231 C 179.333 58.828,178.690 56.173,178.539 55.929 C 178.484 55.840,178.421 55.613,178.400 55.425 C 178.337 54.880,177.883 53.215,177.731 52.972 C 177.655 52.850,177.587 52.675,177.581 52.583 C 177.560 52.269,177.133 50.917,176.949 50.583 C 176.848 50.400,176.748 50.142,176.727 50.011 C 176.626 49.402,174.268 42.577,174.141 42.527 C 174.063 42.497,174.036 42.409,174.083 42.333 C 174.131 42.257,174.082 41.982,173.976 41.722 C 173.869 41.463,173.765 41.175,173.744 41.083 C 173.640 40.630,171.244 33.506,171.026 33.000 C 170.887 32.679,170.764 32.342,170.753 32.250 C 170.712 31.920,170.440 31.072,170.193 30.500 C 170.054 30.179,169.931 29.842,169.920 29.750 C 169.879 29.420,169.607 28.572,169.360 28.000 C 169.221 27.679,169.098 27.342,169.086 27.250 C 169.042 26.893,168.779 26.067,168.608 25.750 C 168.509 25.567,168.416 25.360,168.402 25.292 C 168.387 25.223,168.357 25.110,168.335 25.042 C 168.313 24.973,168.282 24.842,168.266 24.750 C 168.251 24.658,168.135 24.265,168.009 23.875 L 167.781 23.167 163.890 23.167 C 161.751 23.167,160.000 23.202,160.000 23.245 M204.667 45.417 L 204.667 67.667 217.333 67.667 L 230.000 67.667 230.000 64.500 L 230.000 61.333 221.000 61.333 L 212.000 61.333 212.000 54.500 L 212.000 47.667 220.417 47.667 L 228.833 47.667 228.833 44.500 L 228.833 41.333 220.417 41.333 L 212.000 41.333 212.000 35.417 L 212.000 29.500 221.000 29.500 L 230.000 29.500 230.000 26.333 L 230.000 23.167 217.333 23.167 L 204.667 23.167 204.667 45.417 M273.000 38.078 C 273.000 55.825,273.065 56.621,274.791 60.083 C 275.696 61.899,278.553 65.167,279.235 65.167 C 279.361 65.167,279.501 65.261,279.545 65.377 C 279.611 65.549,281.037 66.380,281.333 66.420 C 281.379 66.426,281.653 66.557,281.943 66.712 C 282.655 67.092,285.328 67.856,285.524 67.735 C 285.611 67.682,285.783 67.723,285.908 67.826 C 286.493 68.312,292.919 68.420,294.750 67.975 C 295.117 67.886,295.529 67.809,295.667 67.803 C 295.876 67.796,297.454 67.382,298.542 67.050 C 298.702 67.001,298.833 66.890,298.833 66.804 C 298.833 66.718,298.909 66.694,299.002 66.751 C 299.206 66.877,301.842 65.501,301.955 65.209 C 301.999 65.095,302.093 65.038,302.163 65.081 C 302.491 65.284,306.047 61.530,306.204 60.816 C 306.229 60.701,306.355 60.477,306.483 60.318 C 306.780 59.949,307.614 58.001,307.737 57.386 C 307.789 57.128,307.946 56.408,308.085 55.786 C 308.425 54.266,308.418 54.742,308.373 37.958 L 308.333 23.167 304.667 23.167 L 301.000 23.167 300.991 37.792 C 300.984 49.050,300.932 52.724,300.763 53.750 C 300.643 54.483,300.580 55.177,300.623 55.292 C 300.667 55.406,300.611 55.500,300.500 55.500 C 300.389 55.500,300.341 55.612,300.394 55.750 C 300.446 55.887,300.436 56.000,300.370 56.001 C 300.304 56.001,300.107 56.357,299.931 56.792 C 299.756 57.227,299.477 57.779,299.311 58.019 C 299.145 58.258,299.045 58.502,299.088 58.560 C 299.131 58.619,299.128 58.640,299.080 58.608 C 299.033 58.576,298.676 58.857,298.287 59.233 C 297.263 60.224,296.709 60.653,296.598 60.542 C 296.544 60.488,296.500 60.544,296.500 60.667 C 296.500 60.789,296.453 60.842,296.396 60.785 C 296.339 60.728,296.018 60.821,295.684 60.991 C 295.349 61.162,294.720 61.355,294.286 61.420 C 293.851 61.485,293.464 61.589,293.426 61.652 C 293.387 61.714,292.432 61.785,291.303 61.810 C 285.458 61.940,282.217 59.802,280.977 54.999 C 280.539 53.304,280.580 54.933,280.536 37.458 L 280.500 23.167 276.750 23.167 L 273.000 23.167 273.000 38.078 M319.500 45.417 L 319.500 67.667 323.250 67.667 L 327.000 67.667 327.000 59.349 L 327.000 51.031 331.625 50.957 C 336.251 50.883,338.552 50.621,338.853 50.135 C 338.913 50.037,339.042 50.006,339.138 50.066 C 339.366 50.206,342.333 49.020,342.333 48.788 C 342.333 48.691,342.380 48.658,342.437 48.715 C 343.262 49.539,348.295 43.617,348.569 41.500 C 348.598 41.271,348.665 40.971,348.716 40.833 C 349.304 39.260,349.299 34.070,348.708 32.500 C 348.656 32.362,348.629 32.156,348.648 32.042 C 348.666 31.927,348.590 31.833,348.480 31.833 C 348.369 31.833,348.323 31.788,348.379 31.732 C 348.514 31.598,347.879 29.997,347.544 29.625 C 347.400 29.465,347.335 29.333,347.399 29.333 C 347.587 29.333,346.672 28.162,345.741 27.210 C 345.271 26.729,344.837 26.385,344.777 26.446 C 344.716 26.506,344.667 26.475,344.667 26.377 C 344.667 26.200,343.386 25.371,343.102 25.365 C 343.021 25.363,342.908 25.295,342.852 25.213 C 341.886 23.807,336.923 23.167,326.982 23.167 L 319.500 23.167 319.500 45.417 M357.833 45.417 L 357.833 67.667 361.583 67.667 L 365.333 67.667 365.333 59.351 L 365.333 51.035 369.958 50.951 C 374.337 50.872,376.327 50.666,377.052 50.218 C 377.153 50.156,377.440 50.082,377.690 50.055 C 377.941 50.028,378.582 49.804,379.114 49.559 C 379.647 49.314,380.121 49.103,380.167 49.091 C 381.931 48.619,384.788 45.901,385.958 43.583 C 387.887 39.760,387.815 33.073,385.806 29.527 C 385.226 28.503,383.081 26.167,382.722 26.167 C 382.600 26.167,382.500 26.104,382.500 26.026 C 382.500 25.827,380.905 24.984,380.775 25.114 C 380.715 25.174,380.667 25.144,380.667 25.048 C 380.667 24.857,378.952 24.167,378.367 24.123 C 378.165 24.108,378.000 24.052,378.000 23.998 C 378.000 23.850,376.277 23.525,374.500 23.339 C 373.629 23.247,369.523 23.171,365.375 23.170 L 357.833 23.167 357.833 45.417 M335.167 29.724 C 335.579 29.763,336.029 29.838,336.167 29.891 C 336.557 30.043,337.900 30.505,338.069 30.546 C 338.469 30.643,341.050 33.167,340.750 33.167 C 340.718 33.167,340.843 33.598,341.029 34.125 C 341.984 36.842,341.307 40.634,339.594 42.160 C 339.231 42.485,338.798 42.881,338.633 43.042 C 338.468 43.202,338.333 43.297,338.333 43.253 C 338.333 43.208,338.045 43.322,337.692 43.506 C 335.971 44.403,334.732 44.614,330.292 44.765 L 327.000 44.876 327.000 37.192 L 327.000 29.507 330.208 29.462 C 331.973 29.437,333.642 29.470,333.917 29.536 C 334.192 29.601,334.754 29.686,335.167 29.724 M373.833 29.715 C 374.063 29.748,374.466 29.865,374.731 29.975 C 374.996 30.086,375.353 30.197,375.525 30.223 C 375.697 30.250,375.927 30.360,376.036 30.469 C 376.144 30.578,376.325 30.667,376.437 30.667 C 376.762 30.667,378.402 32.249,378.754 32.902 C 378.931 33.231,379.138 33.500,379.214 33.500 C 379.291 33.500,379.315 33.562,379.268 33.638 C 379.221 33.714,379.291 34.139,379.424 34.581 C 379.560 35.033,379.667 36.058,379.667 36.917 C 379.667 37.775,379.560 38.801,379.424 39.252 C 379.291 39.695,379.217 40.113,379.259 40.181 C 379.301 40.249,379.278 40.330,379.209 40.361 C 379.139 40.392,378.755 40.922,378.356 41.540 C 377.956 42.158,377.571 42.627,377.500 42.584 C 377.429 42.540,377.273 42.621,377.154 42.765 C 376.846 43.136,375.178 43.951,374.446 44.089 C 374.107 44.152,373.788 44.272,373.737 44.355 C 373.685 44.438,373.574 44.462,373.488 44.410 C 373.403 44.357,373.240 44.373,373.125 44.445 C 372.871 44.604,372.734 44.614,368.625 44.761 L 365.333 44.880 365.333 37.173 L 365.333 29.466 369.375 29.561 C 371.598 29.613,373.604 29.682,373.833 29.715 " stroke="none" fill="#043c54" fill-rule="evenodd"/><path id="path1" d="M308.413 37.917 C 308.413 46.075,308.433 49.388,308.458 45.279 C 308.483 41.170,308.483 34.495,308.458 30.446 C 308.433 26.396,308.413 29.758,308.413 37.917 " stroke="none" fill="#083c54" fill-rule="evenodd"/><path id="path2" d="M308.413 37.917 C 308.413 46.075,308.433 49.388,308.458 45.279 C 308.483 41.170,308.483 34.495,308.458 30.446 C 308.433 26.396,308.413 29.758,308.413 37.917 " stroke="none" fill="#083c54" fill-rule="evenodd"/><path id="path3" d="M308.413 37.917 C 308.413 46.075,308.433 49.388,308.458 45.279 C 308.483 41.170,308.483 34.495,308.458 30.446 C 308.433 26.396,308.413 29.758,308.413 37.917 " stroke="none" fill="#083c54" fill-rule="evenodd"/><path id="path4" d="M308.413 37.917 C 308.413 46.075,308.433 49.388,308.458 45.279 C 308.483 41.170,308.483 34.495,308.458 30.446 C 308.433 26.396,308.413 29.758,308.413 37.917 " stroke="none" fill="#083c54" fill-rule="evenodd"/></g></svg>