<svg xmlns="http://www.w3.org/2000/svg" width="181.77" height="44.993" viewBox="0 0 181.77 44.993">
  <g id="Group_12" data-name="Group 12" transform="translate(-146.8 -498.868)">
    <path id="Path_22" data-name="Path 22" d="M262.5,506.446a18.4,18.4,0,0,1,0,25.93" transform="translate(41.406 1.953)" fill="none" stroke="#2099b2" stroke-linecap="round" stroke-miterlimit="10" stroke-width="3"/>
    <path id="Path_23" data-name="Path 23" d="M268.455,504.192a22.74,22.74,0,0,1,0,32.053" transform="translate(43.537 1.146)" fill="none" stroke="#2099b2" stroke-linecap="round" stroke-miterlimit="10" stroke-width="3"/>
    <path id="Path_24" data-name="Path 24" d="M273.55,500.989a29.52,29.52,0,0,1,0,40.751" transform="translate(45.361 0)" fill="none" stroke="#2099b2" stroke-linecap="round" stroke-miterlimit="10" stroke-width="3"/>
    <g id="Group_11" data-name="Group 11" transform="translate(146.8 503.641)">
      <path id="Path_25" data-name="Path 25" d="M150.974,526.219c0,.276.08.356.356.356h9.452a1.98,1.98,0,0,1,0,3.938H148.769a1.742,1.742,0,0,1-1.969-1.772V504.713c0-1.418,1.1-1.771,2.087-1.771s2.087.353,2.087,1.771Z" transform="translate(-146.8 -502.942)" fill="#030504"/>
      <path id="Path_26" data-name="Path 26" d="M163.325,507.748a2.317,2.317,0,0,1-2.4-2.4,2.4,2.4,0,1,1,4.8,0A2.34,2.34,0,0,1,163.325,507.748Zm1.97,21.15a1.981,1.981,0,0,1-3.941,0V512.434a1.981,1.981,0,0,1,3.941,0Z" transform="translate(-141.746 -502.942)" fill="#030504"/>
      <path id="Path_27" data-name="Path 27" d="M172.483,526.391,166.851,511.3a2.332,2.332,0,0,1-.158-.827,2.059,2.059,0,0,1,2.166-1.851,1.739,1.739,0,0,1,1.693,1.3l4.059,11.659c.117.276.117.71.394.71s.276-.435.394-.71l4.056-11.659a1.742,1.742,0,0,1,1.695-1.3,2.048,2.048,0,0,1,2.166,1.851,2.332,2.332,0,0,1-.158.827l-5.632,15.086c-.474,1.3-1.063,2.245-2.52,2.245S172.956,527.69,172.483,526.391Z" transform="translate(-139.681 -500.907)" fill="#030504"/>
      <path id="Path_28" data-name="Path 28" d="M188.925,528.635c-6.341,0-8.312-3.506-8.312-10,0-5.869,1.576-10,8.115-10,6.381,0,7.916,4.41,7.916,9.02,0,1.219-.512,2.52-2.285,2.52h-9.295c-.236,0-.354.079-.354.276.079,2.875,1.1,4.529,4.49,4.529a7.521,7.521,0,0,0,3.426-.906c.868-.471,1.261-.865,1.851-.865a2.1,2.1,0,0,1,1.892,2.087,1.657,1.657,0,0,1-.551,1.1A11.287,11.287,0,0,1,188.925,528.635Zm3.506-11.738c.2,0,.276-.079.276-.236-.159-2.914-1.181-4.491-3.979-4.491-2.914,0-3.782,1.577-3.979,4.372,0,.236.079.354.276.354Z" transform="translate(-134.699 -500.907)" fill="#030504"/>
      <path id="Path_29" data-name="Path 29" d="M204.83,506.88c-3.112,0-4.924,1.38-4.924,3.467,0,1.733,1.536,2.52,3.78,3.387l3.782,1.5c4.1,1.616,6.617,3.427,6.617,7.642,0,4.845-3.782,7.8-9.255,7.8a12.387,12.387,0,0,1-8.942-3.229,2.036,2.036,0,0,1-.63-1.3,2.429,2.429,0,0,1,2.166-2.205,2.058,2.058,0,0,1,1.339.669,8.972,8.972,0,0,0,6.067,2.125c2.953,0,5-1.457,5-3.859,0-1.772-1.5-2.876-3.782-3.742l-3.78-1.5c-4.057-1.616-6.617-3.191-6.617-7.286,0-4.451,3.7-7.4,9.178-7.4a11.715,11.715,0,0,1,7.129,2.126,1.882,1.882,0,0,1,.748,1.536,2.3,2.3,0,0,1-2.01,2.049,2,2,0,0,1-1.219-.435A8.255,8.255,0,0,0,204.83,506.88Z" transform="translate(-129.458 -502.942)" fill="#030504"/>
      <path id="Path_30" data-name="Path 30" d="M224.182,520.64V510.4a1.98,1.98,0,0,1,3.938,0v16.464a1.742,1.742,0,0,1-1.969,1.772,1.793,1.793,0,0,1-1.93-1.339c-.039-.118-.118-.276-.276-.276a.5.5,0,0,0-.236.079,6.937,6.937,0,0,1-4.648,1.536c-4.727,0-6.578-3.465-6.578-7.72V510.4a1.981,1.981,0,0,1,3.939,0v9.335c0,2.756.118,5.278,3.86,5.278C222.134,525.012,224.182,524.3,224.182,520.64Z" transform="translate(-123.293 -500.907)" fill="#030504"/>
      <path id="Path_31" data-name="Path 31" d="M243.96,518.63c0,5.634-1.7,10-7.327,10a6.069,6.069,0,0,1-4.1-1.536.435.435,0,0,0-.276-.118c-.158,0-.236.157-.236.315v7.286a1.98,1.98,0,0,1-3.939,0V510.4a1.744,1.744,0,0,1,1.969-1.772,1.793,1.793,0,0,1,1.931,1.339c.039.118.079.315.276.315a.593.593,0,0,0,.315-.158,6.083,6.083,0,0,1,4.057-1.5C242.3,508.627,243.96,513,243.96,518.63Zm-4.059,0c0-3.583-.2-6.263-4.056-6.263-3.388,0-3.821,2.837-3.821,5.949v.906c0,2.638.315,5.672,3.821,5.672C239.706,524.894,239.9,522.215,239.9,518.63Z" transform="translate(-117.71 -500.907)" fill="#030504"/>
      <path id="Path_32" data-name="Path 32" d="M259.243,518.63c0,5.634-1.695,10-7.327,10a6.063,6.063,0,0,1-4.1-1.536.436.436,0,0,0-.277-.118c-.158,0-.235.157-.235.315v7.286a1.981,1.981,0,0,1-3.941,0V510.4a1.744,1.744,0,0,1,1.969-1.772,1.793,1.793,0,0,1,1.931,1.339c.041.118.079.315.276.315a.588.588,0,0,0,.315-.158,6.083,6.083,0,0,1,4.057-1.5C257.588,508.627,259.243,513,259.243,518.63Zm-4.059,0c0-3.583-.2-6.263-4.056-6.263-3.388,0-3.82,2.837-3.82,5.949v.906c0,2.638.314,5.672,3.82,5.672C254.989,524.894,255.184,522.215,255.184,518.63Z" transform="translate(-112.241 -500.907)" fill="#030504"/>
    </g>
  </g>
</svg>
