<svg xmlns="http://www.w3.org/2000/svg" width="95.333" height="77.232" viewBox="0 0 95.333 77.232">
  <g id="Group_899" data-name="Group 899" transform="translate(1.5 1.5)">
    <line id="Line_174" data-name="Line 174" y1="11.219" x2="17.9" transform="translate(20.549 48.152)" fill="none" stroke="#ee7a7a" stroke-linecap="round" stroke-width="3"/>
    <line id="Line_173" data-name="Line 173" x1="17.248" y1="11.219" transform="translate(38.449 48.152)" fill="none" stroke="#ee7a7a" stroke-linecap="round" stroke-width="3"/>
    <line id="Line_175" data-name="Line 175" y2="21.477" transform="translate(38.449 26.675)" fill="none" stroke="#ee7a7a" stroke-linecap="round" stroke-width="3"/>
    <g id="Group_895" data-name="Group 895" transform="translate(24.666 0)">
      <g id="Group_888" data-name="Group 888" transform="translate(0 0)">
        <path id="Union_24" data-name="Union 24" d="M7.345,18.212A9.2,9.2,0,0,1,9.2,0h9.062a9.2,9.2,0,0,1,0,18.4H12.405L6.149,21.98Z" transform="translate(0)" fill="none" stroke="#40524f" stroke-linejoin="round" stroke-width="3"/>
        <ellipse id="Ellipse_67" data-name="Ellipse 67" cx="2.426" cy="2.426" rx="2.426" ry="2.426" transform="translate(5.218 5.088)" fill="none" stroke="#40b1ba" stroke-linejoin="round" stroke-width="3"/>
        <ellipse id="Ellipse_68" data-name="Ellipse 68" cx="2.426" cy="2.426" rx="2.426" ry="2.426" transform="translate(17.941 5.088)" fill="none" stroke="#40b1ba" stroke-linejoin="round" stroke-width="3"/>
        <line id="Line_169" data-name="Line 169" x2="8.421" transform="translate(9.794 13.235)" fill="none" stroke="#40b1ba" stroke-linecap="round" stroke-miterlimit="10" stroke-width="3"/>
      </g>
    </g>
    <g id="Group_893" data-name="Group 893" transform="translate(58.163 60.444)">
      <path id="Path_3264" data-name="Path 3264" d="M53.792,176.141a4.558,4.558,0,0,1-3.819-1.743c-.783-1.019-.94-2.781-.94-5.151s.176-4.112.94-5.15a4.477,4.477,0,0,1,3.819-1.743,5.125,5.125,0,0,1,3.408,1.019c.313.255.588.49.588.9a1.144,1.144,0,0,1-1,1.018.97.97,0,0,1-.588-.215,3.4,3.4,0,0,0-2.311-.763,2.265,2.265,0,0,0-2.312,1.155,9.724,9.724,0,0,0-.411,3.78,9.783,9.783,0,0,0,.411,3.8,2.21,2.21,0,0,0,2.312,1.135,3.7,3.7,0,0,0,2.546-.92.921.921,0,0,1,.627-.314,1.208,1.208,0,0,1,1.077,1.019,1.013,1.013,0,0,1-.313.666A5.1,5.1,0,0,1,53.792,176.141Z" transform="translate(-49.033 -162.353)" fill="#40524f"/>
      <path id="Path_3265" data-name="Path 3265" d="M67.432,170.769c-.1-.176-.156-.176-.313-.176H64.671c-.136,0-.176.039-.176.176v4.5c0,.705-.548.882-1.038.882s-1.037-.176-1.037-.882V163.327a.867.867,0,0,1,.979-.882h4.9a4.165,4.165,0,0,1,1.429,7.971.125.125,0,0,0-.1.137.21.21,0,0,0,.019.078l2.39,3.976a1.125,1.125,0,0,1,.176.549,1.159,1.159,0,0,1-1.117,1,.934.934,0,0,1-.8-.529Zm.863-2.135c1.077,0,1.782-.7,1.782-2.115s-.7-2.115-1.782-2.115H64.671c-.136,0-.176.039-.176.176v3.878c0,.137.04.175.176.175Z" transform="translate(-51.018 -162.367)" fill="#40524f"/>
      <path id="Path_3266" data-name="Path 3266" d="M83.149,169.8l2.821-6.071c.606-1.293,1.057-1.371,1.723-1.371.862,0,1.175.588,1.175,1.508v11.4c0,.705-.549.882-1.038.882s-1.038-.176-1.038-.882v-7.952s0-.215-.118-.215c-.078,0-.136.1-.136.1l-2.116,4.485c-.313.666-.665,1.195-1.429,1.195s-1.117-.529-1.429-1.195l-2.116-4.485s-.059-.1-.137-.1c-.118,0-.118.215-.118.215v7.952c0,.705-.548.882-1.038.882s-1.038-.176-1.038-.882v-11.4c0-.921.313-1.508,1.175-1.508.666,0,1.116.078,1.723,1.371l2.821,6.071s.078.215.157.215S83.149,169.8,83.149,169.8Z" transform="translate(-53.198 -162.353)" fill="#40524f"/>
    </g>
    <ellipse id="Ellipse_72" data-name="Ellipse 72" cx="8.199" cy="8.199" rx="8.199" ry="8.199" transform="translate(30.198 39.901)" fill="#fff"/>
    <g id="Ellipse_73" data-name="Ellipse 73" transform="translate(32.721 42.423)" fill="#fff" stroke="#ee7a7a" stroke-width="3">
      <ellipse cx="5.676" cy="5.676" rx="5.676" ry="5.676" stroke="none"/>
      <ellipse cx="5.676" cy="5.676" rx="4.176" ry="4.176" fill="none"/>
    </g>
    <g id="Group_894" data-name="Group 894" transform="translate(0 54.337)">
      <ellipse id="Ellipse_70" data-name="Ellipse 70" cx="5.462" cy="5.462" rx="5.462" ry="5.462" transform="translate(2.814 0)" fill="#fff" stroke="#40b1ba" stroke-linecap="round" stroke-miterlimit="10" stroke-width="3"/>
      <path id="Path_3267" data-name="Path 3267" d="M58,105.876a8.276,8.276,0,0,1,16.551,0" transform="translate(-58 -85.981)" fill="none" stroke="#40524f" stroke-linecap="round" stroke-miterlimit="10" stroke-width="3"/>
    </g>
  </g>
</svg>
