<svg xmlns="http://www.w3.org/2000/svg" width="257.735" height="140.708" viewBox="0 0 257.735 140.708">
  <g id="Group_696" data-name="Group 696" transform="translate(2.5 2.5)">
    <g id="Group_692" data-name="Group 692" transform="translate(0 17.471)">
      <rect id="Rectangle_611" data-name="Rectangle 611" width="41.872" height="78.65" rx="4.83" transform="translate(210.863 39.587)" fill="#fff" stroke="#40524f" stroke-miterlimit="10" stroke-width="5"/>
      <circle id="Ellipse_40" data-name="Ellipse 40" cx="3.007" cy="3.007" r="3.007" transform="translate(228.791 107.675)" fill="#fff" stroke="#40524f" stroke-miterlimit="10" stroke-width="3"/>
      <line id="Line_55" data-name="Line 55" x2="9.26" transform="translate(227.169 44.793)" fill="none" stroke="#40524f" stroke-linecap="round" stroke-miterlimit="10" stroke-width="3"/>
      <g id="Group_690" data-name="Group 690">
        <path id="Path_3079" data-name="Path 3079" d="M130.335,279.805v-14.3a4.23,4.23,0,0,0-4.23-4.23h-9.613a4.23,4.23,0,0,0-4.23,4.23v14.3a4.23,4.23,0,0,1-4.23,4.23h-20.1a4.23,4.23,0,0,0-4.23,4.231h0a4.23,4.23,0,0,0,4.23,4.23h66.732a4.23,4.23,0,0,0,4.23-4.23h0a4.23,4.23,0,0,0-4.23-4.231h-20.1A4.23,4.23,0,0,1,130.335,279.805Z" transform="translate(-47.668 -174.259)" fill="#fff" stroke="#40524f" stroke-miterlimit="10" stroke-width="5"/>
        <rect id="Rectangle_612" data-name="Rectangle 612" width="147.26" height="93.934" rx="3.447" fill="#fff" stroke="#40524f" stroke-miterlimit="10" stroke-width="5"/>
        <line id="Line_56" data-name="Line 56" x2="147.26" transform="translate(0 87.017)" fill="none" stroke="#40524f" stroke-miterlimit="10" stroke-width="5"/>
      </g>
      <rect id="Rectangle_618" data-name="Rectangle 618" width="58.291" height="24.163" rx="1.66" transform="translate(176.515 71.262)" fill="#fff" stroke="#5fc5ba" stroke-miterlimit="10" stroke-width="5"/>
      <line id="Line_59" data-name="Line 59" x2="37.426" transform="translate(186.648 83.338)" fill="none" stroke="#ee7a7a" stroke-linecap="round" stroke-miterlimit="10" stroke-width="5"/>
    </g>
    <rect id="Rectangle_617" data-name="Rectangle 617" width="98.398" height="60.533" rx="0.957" transform="translate(91.827)" fill="#fff" stroke="#5fc5ba" stroke-miterlimit="10" stroke-width="5"/>
    <line id="Line_57" data-name="Line 57" x2="64.187" transform="translate(109.597 17.686)" fill="none" stroke="#ee7a7a" stroke-linecap="round" stroke-miterlimit="10" stroke-width="5"/>
    <line id="Line_58" data-name="Line 58" x2="64.187" transform="translate(109.597 40.853)" fill="none" stroke="#ee7a7a" stroke-linecap="round" stroke-miterlimit="10" stroke-width="5"/>
  </g>
</svg>
