<svg xmlns="http://www.w3.org/2000/svg" width="80.441" height="78.157" viewBox="0 0 80.441 78.157">
  <g id="Group_898" data-name="Group 898" transform="translate(2.051 2.043)">
    <path id="Path_3254" data-name="Path 3254" d="M90.244,111.657c1.332-8.135,6.132-13.611,13.359-15.242a17.165,17.165,0,0,1,20.911,15.052c.022.208.069.416.106.624a1.2,1.2,0,0,1-.328.336,19.542,19.542,0,0,0-8.467,5.184,1.983,1.983,0,0,1-1.109.6c-4.743.182-9.481.175-14.22.011a1.934,1.934,0,0,1-1.1-.58,20.815,20.815,0,0,0-8.9-5.592A.623.623,0,0,1,90.244,111.657Z" transform="translate(-69.157 -95.984)" fill="none" stroke="#ee7a7a" stroke-width="4"/>
    <path id="Path_3255" data-name="Path 3255" d="M123.212,109.441c3.309,6.114,3.053,12.188-.752,17.887-3.747,5.611-9.23,8.091-15.982,7.519-4.611-.39-8.288-2.667-11.429-5.939a.55.55,0,0,1-.033-.478,18.239,18.239,0,0,0,3.542-12.874,2.825,2.825,0,0,1,2.112-.452c2.962-.018,5.925-.04,8.887,0a4.472,4.472,0,0,0,4.567-2.754c.237-1.372,1.047-1.795,2.426-1.835a16.076,16.076,0,0,0,4.976-1A1.845,1.845,0,0,1,123.212,109.441Z" transform="translate(-56.625 -60.818)" fill="none" stroke="#d2679c" stroke-width="4"/>
    <path id="Path_3256" data-name="Path 3256" d="M100.252,100.665c11.568-2.247,21.495,6.092,20.9,17.8-.336,6.64-3.816,11.444-9.729,14.468-.617-.08-.817-.62-1.138-1.025a17.6,17.6,0,0,0-6.866-5.76,1.562,1.562,0,0,1-1.032-.923c-.339-3.112-.084-6.227-.157-9.343a25.1,25.1,0,0,1,.015-3.01c.252-2.616-.317-4.819-2.794-6.18a49.674,49.674,0,0,1,.668-6.012Z" transform="translate(-44.789 -84.557)" fill="none" stroke="#5fc5ba" stroke-width="4"/>
    <path id="Path_3257" data-name="Path 3257" d="M94.8,133.217c-3.418-1.853-6.406-4.192-8.194-7.738-3.145-6.231-2.893-12.4,1.146-18.08,4.166-5.866,10.08-8.008,17.168-6.957.208.033.42.058.627.088a.912.912,0,0,0,.124.142c.069,2.054.978,4.068.306,6.165a3.087,3.087,0,0,1-1.368.354c-2.554.383-3.845,1.795-3.878,4.4-.055,4.454-.011,8.916-.022,13.374a10.361,10.361,0,0,1-.124,2.375,1.23,1.23,0,0,1-.518.762,17.413,17.413,0,0,0-4.83,5.129A.4.4,0,0,1,94.8,133.217Z" transform="translate(-84.464 -84.856)" fill="none" stroke="#40b1ba" stroke-width="4"/>
    <path id="Path_3258" data-name="Path 3258" d="M88.959,109.282a.768.768,0,0,0,.259-.058,22.651,22.651,0,0,1,5.147,1.171c.482.441.412,1.069.54,1.627a3.69,3.69,0,0,0,3.925,3.225c3.057.106,3.145.212,2.185,3.083-.821,2.459-1.543,4.943-2.306,7.438a1.936,1.936,0,0,0,1.572-.427c3.721-1.948,7.6-3.564,11.331-5.483a2.144,2.144,0,0,1,1.649-.423,2.345,2.345,0,0,1,.427,1.339,16.15,16.15,0,0,0,2.51,6.3,3.079,3.079,0,0,1,.806,1.693,1.877,1.877,0,0,1,.036.244,17.4,17.4,0,0,1-10.952,5.877c-6.625.744-12.042-1.54-15.982-6.858-3.911-5.279-4.4-11.1-1.893-17.168C88.438,110.326,88.711,109.808,88.959,109.282Z" transform="translate(-78.619 -60.922)" fill="none" stroke="#ee7a7a" stroke-width="4"/>
    <path id="Path_3260" data-name="Path 3260" d="M132.431,122.369l-.1,10.525a4.5,4.5,0,0,1-4.837,3.254c-3.221-.073-6.45-.029-9.675-.011-.5,0-1.069-.208-1.492.277-2.331,1.543-4.717,2.973-22.709,10.984,1.16-3.7,2.123-6.877,3.163-10.021.383-1.149-.062-1.27-1.062-1.266-3.312.018-4.743-.81-5.392-3.079-.186-.653-.058-18.74-.237-23.713-.146-4.086,1.383-6.275,5.833-6.154.136-.127,6.753.019,14.533.135,8.125-.085,17.186-.564,18.686,0,2.349.861,3.3,2.55,3.261,5.034C132.34,113.011,132.417,117.688,132.431,122.369Z" transform="translate(-74.363 -81.363)" fill="#fff" stroke="#40b1ba" stroke-linecap="round" stroke-linejoin="round" stroke-width="4"/>
  </g>
</svg>
